<svg version="1.1" xmlns="http://www.w3.org/2000/svg" xmlns:xlink="http://www.w3.org/1999/xlink" width="127.5" height="127.5" viewBox="0,0,127.5,127.5"><g transform="translate(-176.25,-116.25)"><g data-paper-data="{&quot;isPaintingLayer&quot;:true}" fill-rule="nonzero" stroke="#000000" stroke-width="4" stroke-linecap="butt" stroke-linejoin="miter" stroke-miterlimit="10" stroke-dasharray="" stroke-dashoffset="0" style="mix-blend-mode: normal"><path d="M188.25,180c0,-28.58074 23.16926,-51.75 51.75,-51.75c28.58074,0 51.75,23.16926 51.75,51.75c0,28.58074 -23.16926,51.75 -51.75,51.75c-28.58074,0 -51.75,-23.16926 -51.75,-51.75z" fill="#000000"/><path d="M214.25,180c0,-14.22133 11.52867,-25.75 25.75,-25.75c14.22133,0 25.75,11.52867 25.75,25.75c0,14.22133 -11.52867,25.75 -25.75,25.75c-14.22133,0 -25.75,-11.52867 -25.75,-25.75z" fill="#ffffff"/><path d="M178.25,180c0,-34.10358 27.64642,-61.75 61.75,-61.75c34.10358,0 61.75,27.64642 61.75,61.75c0,34.10358 -27.64642,61.75 -61.75,61.75c-34.10358,0 -61.75,-27.64642 -61.75,-61.75z" fill="none"/></g></g></svg>