<svg version="1.1" xmlns="http://www.w3.org/2000/svg" xmlns:xlink="http://www.w3.org/1999/xlink" width="127.5" height="165.15787" viewBox="0,0,127.5,165.15787"><g transform="translate(-176.25,-78.59213)"><g data-paper-data="{&quot;isPaintingLayer&quot;:true}" fill-rule="nonzero" stroke-linecap="butt" stroke-linejoin="miter" stroke-miterlimit="10" stroke-dasharray="" stroke-dashoffset="0" style="mix-blend-mode: normal"><path d="M188.25,180c0,-28.58074 23.16926,-51.75 51.75,-51.75c28.58074,0 51.75,23.16926 51.75,51.75c0,28.58074 -23.16926,51.75 -51.75,51.75c-28.58074,0 -51.75,-23.16926 -51.75,-51.75z" fill="#000000" stroke="#000000" stroke-width="4"/><path d="M178.25,180c0,-34.10358 27.64642,-61.75 61.75,-61.75c34.10358,0 61.75,27.64642 61.75,61.75c0,34.10358 -27.64642,61.75 -61.75,61.75c-34.10358,0 -61.75,-27.64642 -61.75,-61.75z" fill="none" stroke="#000000" stroke-width="4"/><text transform="translate(205.22001,178.10208) scale(0.5,0.5)" font-size="40" xml:space="preserve" fill="#ffffff" fill-rule="nonzero" stroke="none" stroke-width="1" stroke-linecap="butt" stroke-linejoin="miter" stroke-miterlimit="10" stroke-dasharray="" stroke-dashoffset="0" font-family="Sans Serif" font-weight="normal" text-anchor="start" style="mix-blend-mode: normal"><tspan x="0" dy="0">Click to</tspan></text><text transform="translate(201.46002,196.76875) scale(0.5,0.5)" font-size="40" xml:space="preserve" fill="#ffffff" fill-rule="nonzero" stroke="none" stroke-width="1" stroke-linecap="butt" stroke-linejoin="miter" stroke-miterlimit="10" stroke-dasharray="" stroke-dashoffset="0" font-family="Sans Serif" font-weight="normal" text-anchor="start" style="mix-blend-mode: normal"><tspan x="0" dy="0">Activate</tspan></text><path d="M259.14907,78.59213l-18.14907,18.14907l-18.14907,-18.14907z" fill="#000000" stroke="none" stroke-width="0"/></g></g></svg>